<svg width="14" height="14" viewBox="0 0 14 14" fill="none" xmlns="http://www.w3.org/2000/svg">
<path d="M7.00004 13.6666C6.08893 13.6666 5.22782 13.4916 4.41671 13.1416C3.6056 12.7916 2.89726 12.3139 2.29171 11.7083C1.68615 11.1028 1.20837 10.3944 0.858374 9.58331C0.508374 8.7722 0.333374 7.91109 0.333374 6.99998C0.333374 6.07776 0.508374 5.21387 0.858374 4.40831C1.20837 3.60276 1.68615 2.8972 2.29171 2.29165C2.89726 1.68609 3.6056 1.20831 4.41671 0.858313C5.22782 0.508313 6.08893 0.333313 7.00004 0.333313C7.92226 0.333313 8.78615 0.508313 9.59171 0.858313C10.3973 1.20831 11.1028 1.68609 11.7084 2.29165C12.3139 2.8972 12.7917 3.60276 13.1417 4.40831C13.4917 5.21387 13.6667 6.07776 13.6667 6.99998C13.6667 7.91109 13.4917 8.7722 13.1417 9.58331C12.7917 10.3944 12.3139 11.1028 11.7084 11.7083C11.1028 12.3139 10.3973 12.7916 9.59171 13.1416C8.78615 13.4916 7.92226 13.6666 7.00004 13.6666ZM7.00004 12.3C7.28893 11.9 7.53893 11.4833 7.75004 11.05C7.96115 10.6166 8.13337 10.1555 8.26671 9.66665H5.73337C5.86671 10.1555 6.03893 10.6166 6.25004 11.05C6.46115 11.4833 6.71115 11.9 7.00004 12.3ZM5.26671 12.0333C5.06671 11.6666 4.89171 11.2861 4.74171 10.8916C4.59171 10.4972 4.46671 10.0889 4.36671 9.66665H2.40004C2.72226 10.2222 3.12504 10.7055 3.60837 11.1166C4.09171 11.5278 4.64448 11.8333 5.26671 12.0333ZM8.73337 12.0333C9.3556 11.8333 9.90837 11.5278 10.3917 11.1166C10.875 10.7055 11.2778 10.2222 11.6 9.66665H9.63337C9.53337 10.0889 9.40837 10.4972 9.25837 10.8916C9.10837 11.2861 8.93337 11.6666 8.73337 12.0333ZM1.83337 8.33331H4.10004C4.06671 8.11109 4.04171 7.89165 4.02504 7.67498C4.00837 7.45831 4.00004 7.23331 4.00004 6.99998C4.00004 6.76665 4.00837 6.54165 4.02504 6.32498C4.04171 6.10831 4.06671 5.88887 4.10004 5.66665H1.83337C1.77782 5.88887 1.73615 6.10831 1.70837 6.32498C1.6806 6.54165 1.66671 6.76665 1.66671 6.99998C1.66671 7.23331 1.6806 7.45831 1.70837 7.67498C1.73615 7.89165 1.77782 8.11109 1.83337 8.33331ZM5.43337 8.33331H8.56671C8.60004 8.11109 8.62504 7.89165 8.64171 7.67498C8.65837 7.45831 8.66671 7.23331 8.66671 6.99998C8.66671 6.76665 8.65837 6.54165 8.64171 6.32498C8.62504 6.10831 8.60004 5.88887 8.56671 5.66665H5.43337C5.40004 5.88887 5.37504 6.10831 5.35837 6.32498C5.34171 6.54165 5.33337 6.76665 5.33337 6.99998C5.33337 7.23331 5.34171 7.45831 5.35837 7.67498C5.37504 7.89165 5.40004 8.11109 5.43337 8.33331ZM9.90004 8.33331H12.1667C12.2223 8.11109 12.2639 7.89165 12.2917 7.67498C12.3195 7.45831 12.3334 7.23331 12.3334 6.99998C12.3334 6.76665 12.3195 6.54165 12.2917 6.32498C12.2639 6.10831 12.2223 5.88887 12.1667 5.66665H9.90004C9.93337 5.88887 9.95837 6.10831 9.97504 6.32498C9.99171 6.54165 10 6.76665 10 6.99998C10 7.23331 9.99171 7.45831 9.97504 7.67498C9.95837 7.89165 9.93337 8.11109 9.90004 8.33331ZM9.63337 4.33331H11.6C11.2778 3.77776 10.875 3.29442 10.3917 2.88331C9.90837 2.4722 9.3556 2.16665 8.73337 1.96665C8.93337 2.33331 9.10837 2.71387 9.25837 3.10831C9.40837 3.50276 9.53337 3.91109 9.63337 4.33331ZM5.73337 4.33331H8.26671C8.13337 3.84442 7.96115 3.38331 7.75004 2.94998C7.53893 2.51665 7.28893 2.09998 7.00004 1.69998C6.71115 2.09998 6.46115 2.51665 6.25004 2.94998C6.03893 3.38331 5.86671 3.84442 5.73337 4.33331ZM2.40004 4.33331H4.36671C4.46671 3.91109 4.59171 3.50276 4.74171 3.10831C4.89171 2.71387 5.06671 2.33331 5.26671 1.96665C4.64448 2.16665 4.09171 2.4722 3.60837 2.88331C3.12504 3.29442 2.72226 3.77776 2.40004 4.33331Z" fill="currentColor"/>
</svg>
